<svg width="243" height="243" viewBox="0 0 243 243" fill="none" xmlns="http://www.w3.org/2000/svg">
<path d="M121.083 0C54.1469 0 0 54.1469 0 121.083C0 187.853 54.1469 242.166 121.083 242.166C187.853 242.166 242.166 188.019 242.166 121.083C242 54.1469 187.853 0 121.083 0ZM121.083 234.36C58.4653 234.36 7.80645 183.701 7.80645 121.083C7.80645 58.4653 58.4653 7.80645 121.083 7.80645C183.701 7.80645 234.36 58.4653 234.36 121.083C234.36 183.535 183.535 234.36 121.083 234.36Z" fill="#FFCF2D"/>
<path d="M128.012 26.3295C75.8324 22.507 30.3192 61.807 26.4967 113.987C22.6741 166.167 61.9742 211.68 114.154 215.503C166.334 219.325 211.835 180.191 215.658 128.011C219.492 75.6652 180.192 30.1521 128.012 26.3295ZM115.21 201.091C70.9811 197.851 37.6682 159.272 40.9083 115.043C44.1483 70.814 82.7279 37.5011 126.957 40.7411C171.185 43.9812 204.498 82.5607 201.258 126.789C198.018 171.018 159.439 204.331 115.21 201.091Z" fill="#FFCF2D"/>
</svg>
