<svg width="1920" height="3226" viewBox="0 0 1920 3226" fill="none" xmlns="http://www.w3.org/2000/svg">
<g clip-path="url(#clip0_2492_20164)">
<g opacity="0.2">
<path d="M177.474 2778.5L187.001 2778.5L187.001 2753L161.547 2753L161.547 2762.59L177.474 2762.59L177.474 2778.5Z" fill="#FFCF2D"/>
<path d="M160.161 2795.71L169.761 2795.71L169.761 2770.29L144.234 2770.29L144.234 2779.8L160.161 2779.8L160.161 2795.71Z" fill="#FFCF2D"/>
<path d="M142.927 2813L152.527 2813L152.527 2787.5L127 2787.5L127 2797.09L142.927 2797.09L142.927 2813Z" fill="#FFCF2D"/>
</g>
<path d="M1623.08 1410C1556.15 1410 1502 1464.15 1502 1531.08C1502 1597.85 1556.15 1652.17 1623.08 1652.17C1689.85 1652.17 1744.17 1598.02 1744.17 1531.08C1744 1464.15 1689.85 1410 1623.08 1410ZM1623.08 1644.36C1560.47 1644.36 1509.81 1593.7 1509.81 1531.08C1509.81 1468.47 1560.47 1417.81 1623.08 1417.81C1685.7 1417.81 1736.36 1468.47 1736.36 1531.08C1736.36 1593.53 1685.53 1644.36 1623.08 1644.36Z" fill="#FFCF2D"/>
<path d="M1630.01 1436.33C1577.83 1432.51 1532.32 1471.81 1528.5 1523.99C1524.67 1576.17 1563.97 1621.68 1616.15 1625.5C1668.33 1629.33 1713.84 1590.19 1717.66 1538.01C1721.49 1485.67 1682.19 1440.15 1630.01 1436.33ZM1617.21 1611.09C1572.98 1607.85 1539.67 1569.27 1542.91 1525.04C1546.15 1480.81 1584.73 1447.5 1628.96 1450.74C1673.19 1453.98 1706.5 1492.56 1703.26 1536.79C1700.02 1581.02 1661.44 1614.33 1617.21 1611.09Z" fill="#FFCF2D"/>
<path d="M147.88 1515.7C147.88 1516.98 147.049 1517.93 145.94 1517.93C144.832 1517.93 144 1516.98 144 1515.7C144 1514.43 144.832 1513.48 145.94 1513.48C147.049 1513.48 147.88 1514.54 147.88 1515.7Z" fill="#FFCF2D"/>
<path d="M164.419 1515.7C164.419 1516.98 163.587 1517.93 162.478 1517.93C161.37 1517.93 160.538 1516.98 160.538 1515.7C160.538 1514.43 161.37 1513.48 162.478 1513.48C163.495 1513.48 164.419 1514.54 164.419 1515.7Z" fill="#FFCF2D"/>
<path d="M180.864 1515.7C180.864 1516.98 180.032 1517.93 178.924 1517.93C177.815 1517.93 176.983 1516.98 176.983 1515.7C176.983 1514.43 177.815 1513.48 178.924 1513.48C180.032 1513.48 180.864 1514.54 180.864 1515.7Z" fill="#FFCF2D"/>
<path d="M197.402 1515.7C197.402 1516.98 196.57 1517.93 195.462 1517.93C194.353 1517.93 193.521 1516.98 193.521 1515.7C193.521 1514.43 194.353 1513.48 195.462 1513.48C196.57 1513.48 197.402 1514.54 197.402 1515.7Z" fill="#FFCF2D"/>
<path d="M213.94 1515.7C213.94 1516.98 213.108 1517.93 212 1517.93C210.891 1517.93 210.06 1516.98 210.06 1515.7C210.06 1514.43 210.891 1513.48 212 1513.48C213.016 1513.48 213.94 1514.54 213.94 1515.7Z" fill="#FFCF2D"/>
<path d="M230.478 1515.7C230.478 1516.98 229.647 1517.93 228.538 1517.93C227.429 1517.93 226.598 1516.98 226.598 1515.7C226.598 1514.43 227.429 1513.48 228.538 1513.48C229.647 1513.48 230.478 1514.54 230.478 1515.7Z" fill="#FFCF2D"/>
<path d="M246.924 1515.7C246.924 1516.98 246.093 1517.93 244.984 1517.93C243.875 1517.93 243.044 1516.98 243.044 1515.7C243.044 1514.43 243.875 1513.48 244.984 1513.48C246.093 1513.48 246.924 1514.54 246.924 1515.7Z" fill="#FFCF2D"/>
<path d="M263.462 1515.7C263.462 1516.98 262.631 1517.93 261.522 1517.93C260.414 1517.93 259.582 1516.98 259.582 1515.7C259.582 1514.43 260.414 1513.48 261.522 1513.48C262.631 1513.48 263.462 1514.54 263.462 1515.7Z" fill="#FFCF2D"/>
<path d="M280.001 1515.7C280.001 1516.98 279.169 1517.93 278.06 1517.93C276.952 1517.93 276.12 1516.98 276.12 1515.7C276.12 1514.43 276.952 1513.48 278.06 1513.48C279.077 1513.48 280.001 1514.54 280.001 1515.7Z" fill="#FFCF2D"/>
<path d="M147.88 1531.5C147.88 1532.77 147.049 1533.72 145.94 1533.72C144.832 1533.72 144 1532.77 144 1531.5C144 1530.23 144.832 1529.27 145.94 1529.27C147.049 1529.27 147.88 1530.23 147.88 1531.5Z" fill="#FFCF2D"/>
<path d="M164.419 1531.5C164.419 1532.77 163.587 1533.72 162.478 1533.72C161.37 1533.72 160.538 1532.77 160.538 1531.5C160.538 1530.23 161.37 1529.27 162.478 1529.27C163.495 1529.27 164.419 1530.23 164.419 1531.5Z" fill="#FFCF2D"/>
<path d="M180.864 1531.5C180.864 1532.77 180.032 1533.72 178.924 1533.72C177.815 1533.72 176.983 1532.77 176.983 1531.5C176.983 1530.23 177.815 1529.27 178.924 1529.27C180.032 1529.27 180.864 1530.23 180.864 1531.5Z" fill="#FFCF2D"/>
<path d="M197.402 1531.5C197.402 1532.77 196.57 1533.72 195.462 1533.72C194.353 1533.72 193.521 1532.77 193.521 1531.5C193.521 1530.23 194.353 1529.27 195.462 1529.27C196.57 1529.27 197.402 1530.23 197.402 1531.5Z" fill="#FFCF2D"/>
<path d="M213.94 1531.5C213.94 1532.77 213.108 1533.72 212 1533.72C210.891 1533.72 210.06 1532.77 210.06 1531.5C210.06 1530.23 210.891 1529.27 212 1529.27C213.016 1529.27 213.94 1530.23 213.94 1531.5Z" fill="#FFCF2D"/>
<path d="M230.478 1531.5C230.478 1532.77 229.647 1533.72 228.538 1533.72C227.429 1533.72 226.598 1532.77 226.598 1531.5C226.598 1530.23 227.429 1529.27 228.538 1529.27C229.647 1529.27 230.478 1530.23 230.478 1531.5Z" fill="#FFCF2D"/>
<path d="M246.924 1531.5C246.924 1532.77 246.093 1533.72 244.984 1533.72C243.875 1533.72 243.044 1532.77 243.044 1531.5C243.044 1530.23 243.875 1529.27 244.984 1529.27C246.093 1529.27 246.924 1530.23 246.924 1531.5Z" fill="#FFCF2D"/>
<path d="M263.462 1531.5C263.462 1532.77 262.631 1533.72 261.522 1533.72C260.414 1533.72 259.582 1532.77 259.582 1531.5C259.582 1530.23 260.414 1529.27 261.522 1529.27C262.631 1529.27 263.462 1530.23 263.462 1531.5Z" fill="#FFCF2D"/>
<path d="M280.001 1531.5C280.001 1532.77 279.169 1533.72 278.06 1533.72C276.952 1533.72 276.12 1532.77 276.12 1531.5C276.12 1530.23 276.952 1529.27 278.06 1529.27C279.077 1529.27 280.001 1530.23 280.001 1531.5Z" fill="#FFCF2D"/>
<path d="M147.88 1484.23C147.88 1485.5 147.049 1486.45 145.94 1486.45C144.832 1486.45 144 1485.5 144 1484.23C144 1482.95 144.832 1482 145.94 1482C147.049 1482 147.88 1482.95 147.88 1484.23Z" fill="#FFCF2D"/>
<path d="M164.419 1484.23C164.419 1485.5 163.587 1486.45 162.478 1486.45C161.37 1486.45 160.538 1485.5 160.538 1484.23C160.538 1482.95 161.37 1482 162.478 1482C163.495 1482 164.419 1482.95 164.419 1484.23Z" fill="#FFCF2D"/>
<path d="M180.864 1484.23C180.864 1485.5 180.032 1486.45 178.924 1486.45C177.815 1486.45 176.983 1485.5 176.983 1484.23C176.983 1482.95 177.907 1482 178.924 1482C180.032 1482 180.864 1482.95 180.864 1484.23Z" fill="#FFCF2D"/>
<path d="M197.402 1484.23C197.402 1485.5 196.57 1486.45 195.462 1486.45C194.353 1486.45 193.521 1485.5 193.521 1484.23C193.521 1482.95 194.445 1482 195.462 1482C196.478 1482 197.402 1482.95 197.402 1484.23Z" fill="#FFCF2D"/>
<path d="M213.94 1484.23C213.94 1485.5 213.108 1486.45 212 1486.45C210.891 1486.45 210.06 1485.5 210.06 1484.23C210.06 1482.95 210.891 1482 212 1482C213.016 1482 213.94 1482.95 213.94 1484.23Z" fill="#FFCF2D"/>
<path d="M230.478 1484.23C230.478 1485.5 229.647 1486.45 228.538 1486.45C227.429 1486.45 226.598 1485.5 226.598 1484.23C226.598 1482.95 227.429 1482 228.538 1482C229.647 1482 230.478 1482.95 230.478 1484.23Z" fill="#FFCF2D"/>
<path d="M246.924 1484.23C246.924 1485.5 246.093 1486.45 244.984 1486.45C243.875 1486.45 243.044 1485.5 243.044 1484.23C243.044 1482.95 243.875 1482 244.984 1482C246.093 1482 246.924 1482.95 246.924 1484.23Z" fill="#FFCF2D"/>
<path d="M263.463 1484.23C263.463 1485.5 262.631 1486.45 261.522 1486.45C260.414 1486.45 259.582 1485.5 259.582 1484.23C259.582 1482.95 260.414 1482 261.522 1482C262.631 1482 263.463 1482.95 263.463 1484.23Z" fill="#FFCF2D"/>
<path d="M280.001 1484.23C280.001 1485.5 279.169 1486.45 278.06 1486.45C276.952 1486.45 276.12 1485.5 276.12 1484.23C276.12 1482.95 276.952 1482 278.06 1482C279.077 1482 280.001 1482.95 280.001 1484.23Z" fill="#FFCF2D"/>
<path d="M147.88 1500.02C147.88 1501.29 147.049 1502.24 145.94 1502.24C144.832 1502.24 144 1501.18 144 1500.02C144 1498.75 144.832 1497.79 145.94 1497.79C147.049 1497.79 147.88 1498.75 147.88 1500.02Z" fill="#FFCF2D"/>
<path d="M164.419 1500.02C164.419 1501.29 163.587 1502.24 162.478 1502.24C161.37 1502.24 160.538 1501.29 160.538 1500.02C160.538 1498.75 161.37 1497.79 162.478 1497.79C163.495 1497.79 164.419 1498.75 164.419 1500.02Z" fill="#FFCF2D"/>
<path d="M180.864 1500.02C180.864 1501.29 180.032 1502.24 178.924 1502.24C177.815 1502.24 176.983 1501.29 176.983 1500.02C176.983 1498.75 177.815 1497.79 178.924 1497.79C180.032 1497.79 180.864 1498.75 180.864 1500.02Z" fill="#FFCF2D"/>
<path d="M197.402 1500.02C197.402 1501.29 196.57 1502.24 195.462 1502.24C194.353 1502.24 193.521 1501.29 193.521 1500.02C193.521 1498.75 194.353 1497.79 195.462 1497.79C196.57 1497.79 197.402 1498.75 197.402 1500.02Z" fill="#FFCF2D"/>
<path d="M213.94 1500.02C213.94 1501.29 213.108 1502.24 212 1502.24C210.891 1502.24 210.06 1501.29 210.06 1500.02C210.06 1498.75 210.891 1497.79 212 1497.79C213.016 1497.79 213.94 1498.75 213.94 1500.02Z" fill="#FFCF2D"/>
<path d="M230.478 1500.02C230.478 1501.29 229.647 1502.24 228.538 1502.24C227.429 1502.24 226.598 1501.29 226.598 1500.02C226.598 1498.75 227.429 1497.79 228.538 1497.79C229.647 1497.79 230.478 1498.75 230.478 1500.02Z" fill="#FFCF2D"/>
<path d="M246.924 1500.02C246.924 1501.29 246.093 1502.24 244.984 1502.24C243.875 1502.24 243.044 1501.29 243.044 1500.02C243.044 1498.75 243.875 1497.79 244.984 1497.79C246.093 1497.79 246.924 1498.75 246.924 1500.02Z" fill="#FFCF2D"/>
<path d="M263.462 1500.02C263.462 1501.29 262.631 1502.24 261.522 1502.24C260.414 1502.24 259.582 1501.29 259.582 1500.02C259.582 1498.75 260.414 1497.79 261.522 1497.79C262.631 1497.79 263.462 1498.75 263.462 1500.02Z" fill="#FFCF2D"/>
<path d="M280.001 1500.02C280.001 1501.29 279.169 1502.24 278.06 1502.24C276.952 1502.24 276.12 1501.29 276.12 1500.02C276.12 1498.75 276.952 1497.79 278.06 1497.79C279.077 1497.79 280.001 1498.75 280.001 1500.02Z" fill="#FFCF2D"/>
<path d="M147.88 1547.18C147.88 1548.46 147.049 1549.41 145.94 1549.41C144.832 1549.41 144 1548.46 144 1547.18C144 1545.91 144.832 1544.96 145.94 1544.96C147.049 1544.96 147.88 1546.02 147.88 1547.18Z" fill="#FFCF2D"/>
<path d="M164.419 1547.18C164.419 1548.46 163.587 1549.41 162.478 1549.41C161.37 1549.41 160.538 1548.46 160.538 1547.18C160.538 1545.91 161.37 1544.96 162.478 1544.96C163.495 1544.96 164.419 1546.02 164.419 1547.18Z" fill="#FFCF2D"/>
<path d="M180.864 1547.18C180.864 1548.46 180.032 1549.41 178.924 1549.41C177.815 1549.41 176.983 1548.46 176.983 1547.18C176.983 1545.91 177.815 1544.96 178.924 1544.96C180.032 1544.96 180.864 1546.02 180.864 1547.18Z" fill="#FFCF2D"/>
<path d="M197.402 1547.18C197.402 1548.46 196.57 1549.41 195.462 1549.41C194.353 1549.41 193.521 1548.46 193.521 1547.18C193.521 1545.91 194.353 1544.96 195.462 1544.96C196.57 1544.96 197.402 1546.02 197.402 1547.18Z" fill="#FFCF2D"/>
<path d="M213.94 1547.18C213.94 1548.46 213.108 1549.41 212 1549.41C210.891 1549.41 210.06 1548.46 210.06 1547.18C210.06 1545.91 210.891 1544.96 212 1544.96C213.016 1544.96 213.94 1546.02 213.94 1547.18Z" fill="#FFCF2D"/>
<path d="M230.478 1547.18C230.478 1548.46 229.647 1549.41 228.538 1549.41C227.429 1549.41 226.598 1548.46 226.598 1547.18C226.598 1545.91 227.429 1544.96 228.538 1544.96C229.647 1544.96 230.478 1546.02 230.478 1547.18Z" fill="#FFCF2D"/>
<path d="M246.924 1547.18C246.924 1548.46 246.093 1549.41 244.984 1549.41C243.875 1549.41 243.044 1548.46 243.044 1547.18C243.044 1545.91 243.875 1544.96 244.984 1544.96C246.093 1544.96 246.924 1546.02 246.924 1547.18Z" fill="#FFCF2D"/>
<path d="M263.462 1547.18C263.462 1548.46 262.631 1549.41 261.522 1549.41C260.414 1549.41 259.582 1548.46 259.582 1547.18C259.582 1545.91 260.414 1544.96 261.522 1544.96C262.631 1544.96 263.462 1546.02 263.462 1547.18Z" fill="#FFCF2D"/>
<path d="M280.001 1547.18C280.001 1548.46 279.169 1549.41 278.06 1549.41C276.952 1549.41 276.12 1548.46 276.12 1547.18C276.12 1545.91 276.952 1544.96 278.06 1544.96C279.077 1544.96 280.001 1546.02 280.001 1547.18Z" fill="#FFCF2D"/>
<path d="M147.88 1562.98C147.88 1564.25 147.049 1565.2 145.94 1565.2C144.832 1565.2 144 1564.25 144 1562.98C144 1561.71 144.832 1560.75 145.94 1560.75C147.049 1560.75 147.88 1561.71 147.88 1562.98Z" fill="#FFCF2D"/>
<path d="M164.419 1562.98C164.419 1564.25 163.587 1565.2 162.478 1565.2C161.37 1565.2 160.538 1564.25 160.538 1562.98C160.538 1561.71 161.37 1560.75 162.478 1560.75C163.495 1560.75 164.419 1561.71 164.419 1562.98Z" fill="#FFCF2D"/>
<path d="M180.864 1562.98C180.864 1564.25 180.032 1565.2 178.924 1565.2C177.815 1565.2 176.983 1564.25 176.983 1562.98C176.983 1561.71 177.815 1560.75 178.924 1560.75C180.032 1560.75 180.864 1561.71 180.864 1562.98Z" fill="#FFCF2D"/>
<path d="M195.462 1565.2C196.533 1565.2 197.402 1564.21 197.402 1562.98C197.402 1561.75 196.533 1560.75 195.462 1560.75C194.39 1560.75 193.521 1561.75 193.521 1562.98C193.521 1564.21 194.39 1565.2 195.462 1565.2Z" fill="#FFCF2D"/>
<path d="M213.94 1562.98C213.94 1564.25 213.108 1565.2 212 1565.2C210.891 1565.2 210.06 1564.25 210.06 1562.98C210.06 1561.71 210.891 1560.75 212 1560.75C213.016 1560.75 213.94 1561.71 213.94 1562.98Z" fill="#FFCF2D"/>
<path d="M230.478 1562.98C230.478 1564.25 229.647 1565.2 228.538 1565.2C227.429 1565.2 226.598 1564.25 226.598 1562.98C226.598 1561.71 227.429 1560.75 228.538 1560.75C229.647 1560.75 230.478 1561.71 230.478 1562.98Z" fill="#FFCF2D"/>
<path d="M246.924 1562.98C246.924 1564.25 246.093 1565.2 244.984 1565.2C243.875 1565.2 243.044 1564.25 243.044 1562.98C243.044 1561.71 243.875 1560.75 244.984 1560.75C246.093 1560.75 246.924 1561.71 246.924 1562.98Z" fill="#FFCF2D"/>
<path d="M261.522 1565.2C262.594 1565.2 263.462 1564.21 263.462 1562.98C263.462 1561.75 262.594 1560.75 261.522 1560.75C260.451 1560.75 259.582 1561.75 259.582 1562.98C259.582 1564.21 260.451 1565.2 261.522 1565.2Z" fill="#FFCF2D"/>
<path d="M280.001 1562.98C280.001 1564.25 279.169 1565.2 278.06 1565.2C276.952 1565.2 276.12 1564.25 276.12 1562.98C276.12 1561.71 276.952 1560.75 278.06 1560.75C279.077 1560.75 280.001 1561.71 280.001 1562.98Z" fill="#FFCF2D"/>
<path d="M147.88 1578.77C147.88 1580.04 147.049 1580.99 145.94 1580.99C144.832 1580.99 144 1580.04 144 1578.77C144 1577.5 144.832 1576.54 145.94 1576.54C147.049 1576.54 147.88 1577.5 147.88 1578.77Z" fill="#FFCF2D"/>
<path d="M164.419 1578.77C164.419 1580.04 163.587 1580.99 162.478 1580.99C161.37 1580.99 160.538 1580.04 160.538 1578.77C160.538 1577.5 161.37 1576.54 162.478 1576.54C163.495 1576.54 164.419 1577.5 164.419 1578.77Z" fill="#FFCF2D"/>
<path d="M180.864 1578.77C180.864 1580.04 180.032 1580.99 178.924 1580.99C177.815 1580.99 176.983 1580.04 176.983 1578.77C176.983 1577.5 177.815 1576.54 178.924 1576.54C180.032 1576.54 180.864 1577.5 180.864 1578.77Z" fill="#FFCF2D"/>
<path d="M197.402 1578.77C197.402 1580.04 196.57 1580.99 195.462 1580.99C194.353 1580.99 193.521 1580.04 193.521 1578.77C193.521 1577.5 194.353 1576.54 195.462 1576.54C196.57 1576.54 197.402 1577.5 197.402 1578.77Z" fill="#FFCF2D"/>
<path d="M213.94 1578.77C213.94 1580.04 213.108 1580.99 212 1580.99C210.891 1580.99 210.06 1580.04 210.06 1578.77C210.06 1577.5 210.891 1576.54 212 1576.54C213.016 1576.54 213.94 1577.5 213.94 1578.77Z" fill="#FFCF2D"/>
<path d="M230.478 1578.77C230.478 1580.04 229.647 1580.99 228.538 1580.99C227.429 1580.99 226.598 1580.04 226.598 1578.77C226.598 1577.5 227.429 1576.54 228.538 1576.54C229.647 1576.54 230.478 1577.5 230.478 1578.77Z" fill="#FFCF2D"/>
<path d="M246.924 1578.77C246.924 1580.04 246.093 1580.99 244.984 1580.99C243.875 1580.99 243.044 1580.04 243.044 1578.77C243.044 1577.5 243.875 1576.54 244.984 1576.54C246.093 1576.54 246.924 1577.5 246.924 1578.77Z" fill="#FFCF2D"/>
<path d="M263.462 1578.77C263.462 1580.04 262.631 1580.99 261.522 1580.99C260.414 1580.99 259.582 1580.04 259.582 1578.77C259.582 1577.5 260.414 1576.54 261.522 1576.54C262.631 1576.54 263.462 1577.5 263.462 1578.77Z" fill="#FFCF2D"/>
<path d="M280 1578.77C280 1580.04 279.168 1580.99 278.059 1580.99C276.951 1580.99 276.119 1580.04 276.119 1578.77C276.119 1577.5 276.951 1576.54 278.059 1576.54C279.076 1576.54 280 1577.5 280 1578.77Z" fill="#FFCF2D"/>
<path d="M147.88 1594.46C147.88 1595.73 147.049 1596.68 145.94 1596.68C144.832 1596.68 144 1595.73 144 1594.46C144 1593.18 144.832 1592.23 145.94 1592.23C147.049 1592.23 147.88 1593.29 147.88 1594.46Z" fill="#FFCF2D"/>
<path d="M164.419 1594.46C164.419 1595.73 163.587 1596.68 162.478 1596.68C161.37 1596.68 160.538 1595.73 160.538 1594.46C160.538 1593.18 161.37 1592.23 162.478 1592.23C163.495 1592.23 164.419 1593.29 164.419 1594.46Z" fill="#FFCF2D"/>
<path d="M180.864 1594.46C180.864 1595.73 180.032 1596.68 178.924 1596.68C177.815 1596.68 176.983 1595.73 176.983 1594.46C176.983 1593.18 177.815 1592.23 178.924 1592.23C180.032 1592.23 180.864 1593.29 180.864 1594.46Z" fill="#FFCF2D"/>
<path d="M197.402 1594.46C197.402 1595.73 196.57 1596.68 195.462 1596.68C194.353 1596.68 193.521 1595.73 193.521 1594.46C193.521 1593.18 194.353 1592.23 195.462 1592.23C196.57 1592.23 197.402 1593.29 197.402 1594.46Z" fill="#FFCF2D"/>
<path d="M213.94 1594.46C213.94 1595.73 213.108 1596.68 212 1596.68C210.891 1596.68 210.06 1595.73 210.06 1594.46C210.06 1593.18 210.891 1592.23 212 1592.23C213.016 1592.23 213.94 1593.29 213.94 1594.46Z" fill="#FFCF2D"/>
<path d="M230.478 1594.46C230.478 1595.73 229.647 1596.68 228.538 1596.68C227.429 1596.68 226.598 1595.73 226.598 1594.46C226.598 1593.18 227.429 1592.23 228.538 1592.23C229.647 1592.23 230.478 1593.29 230.478 1594.46Z" fill="#FFCF2D"/>
<path d="M246.924 1594.46C246.924 1595.73 246.093 1596.68 244.984 1596.68C243.875 1596.68 243.044 1595.73 243.044 1594.46C243.044 1593.18 243.875 1592.23 244.984 1592.23C246.093 1592.23 246.924 1593.29 246.924 1594.46Z" fill="#FFCF2D"/>
<path d="M263.462 1594.46C263.462 1595.73 262.631 1596.68 261.522 1596.68C260.414 1596.68 259.582 1595.73 259.582 1594.46C259.582 1593.18 260.414 1592.23 261.522 1592.23C262.631 1592.23 263.462 1593.29 263.462 1594.46Z" fill="#FFCF2D"/>
<path d="M280.001 1594.46C280.001 1595.73 279.169 1596.68 278.06 1596.68C276.952 1596.68 276.12 1595.73 276.12 1594.46C276.12 1593.18 276.952 1592.23 278.06 1592.23C279.077 1592.23 280.001 1593.29 280.001 1594.46Z" fill="#FFCF2D"/>
<g opacity="0.2">
<path d="M1760.02 154.901C1769.31 149.541 1772.51 137.619 1767.15 128.343C1761.79 119.066 1749.87 115.876 1740.59 121.235L1760.02 154.901Z" fill="#FFCF2D"/>
<path d="M1733.74 170.074C1743.03 164.714 1746.23 152.792 1740.87 143.516C1735.52 134.239 1723.59 131.049 1714.31 136.408L1733.74 170.074Z" fill="#FFCF2D"/>
<path d="M1707.46 185.246C1716.75 179.886 1719.95 167.964 1714.59 158.687C1709.24 149.411 1697.31 146.221 1688.03 151.58L1707.46 185.246Z" fill="#FFCF2D"/>
</g>
</g>
<defs>
<clipPath id="clip0_2492_20164">
<rect width="1920" height="3226" fill="white"/>
</clipPath>
</defs>
</svg>
